<?xml version="1.0" encoding="utf-8" standalone="no"?>
<!DOCTYPE svg PUBLIC "-//W3C//DTD SVG 1.1//EN"
  "http://www.w3.org/Graphics/SVG/1.1/DTD/svg11.dtd">
<svg xmlns:xlink="http://www.w3.org/1999/xlink" width="460.8pt" height="345.6pt" viewBox="0 0 460.8 345.6" xmlns="http://www.w3.org/2000/svg" version="1.1">
 <metadata>
  <rdf:RDF xmlns:dc="http://purl.org/dc/elements/1.1/" xmlns:cc="http://creativecommons.org/ns#" xmlns:rdf="http://www.w3.org/1999/02/22-rdf-syntax-ns#">
   <cc:Work>
    <dc:type rdf:resource="http://purl.org/dc/dcmitype/StillImage"/>
    <dc:date>2024-10-23T11:21:14.228827</dc:date>
    <dc:format>image/svg+xml</dc:format>
    <dc:creator>
     <cc:Agent>
      <dc:title>Matplotlib v3.9.2, https://matplotlib.org/</dc:title>
     </cc:Agent>
    </dc:creator>
   </cc:Work>
  </rdf:RDF>
 </metadata>
 <defs>
  <style type="text/css">*{stroke-linejoin: round; stroke-linecap: butt}</style>
 </defs>
 <g id="figure_1">
  <g id="patch_1">
   <path d="M 0 345.6 
L 460.8 345.6 
L 460.8 0 
L 0 0 
z
" style="fill: #ffffff"/>
  </g>
  <g id="axes_1">
   <g id="patch_2">
    <path d="M 47.72 303.64 
L 450 303.64 
L 450 26.88 
L 47.72 26.88 
z
" style="fill: #ffffff"/>
   </g>
   <g id="matplotlib.axis_1">
    <g id="xtick_1">
     <g id="line2d_1">
      <path d="M 66.005455 303.64 
L 66.005455 26.88 
" clip-path="url(#p68ef1bbd80)" style="fill: none; stroke: #b0b0b0; stroke-width: 0.8; stroke-linecap: square"/>
     </g>
     <g id="line2d_2">
      <defs>
       <path id="m54fe1d906e" d="M 0 0 
L 0 3.5 
" style="stroke: #000000; stroke-width: 0.8"/>
      </defs>
      <g>
       <use xlink:href="#m54fe1d906e" x="66.005455" y="303.64" style="stroke: #000000; stroke-width: 0.8"/>
      </g>
     </g>
     <g id="text_1">
      <!-- 0 -->
      <g transform="translate(62.824205 318.238437) scale(0.1 -0.1)">
       <defs>
        <path id="DejaVuSans-30" d="M 2034 4250 
Q 1547 4250 1301 3770 
Q 1056 3291 1056 2328 
Q 1056 1369 1301 889 
Q 1547 409 2034 409 
Q 2525 409 2770 889 
Q 3016 1369 3016 2328 
Q 3016 3291 2770 3770 
Q 2525 4250 2034 4250 
z
M 2034 4750 
Q 2819 4750 3233 4129 
Q 3647 3509 3647 2328 
Q 3647 1150 3233 529 
Q 2819 -91 2034 -91 
Q 1250 -91 836 529 
Q 422 1150 422 2328 
Q 422 3509 836 4129 
Q 1250 4750 2034 4750 
z
" transform="scale(0.015625)"/>
       </defs>
       <use xlink:href="#DejaVuSans-30"/>
      </g>
     </g>
    </g>
    <g id="xtick_2">
     <g id="line2d_3">
      <path d="M 140.050624 303.64 
L 140.050624 26.88 
" clip-path="url(#p68ef1bbd80)" style="fill: none; stroke: #b0b0b0; stroke-width: 0.8; stroke-linecap: square"/>
     </g>
     <g id="line2d_4">
      <g>
       <use xlink:href="#m54fe1d906e" x="140.050624" y="303.64" style="stroke: #000000; stroke-width: 0.8"/>
      </g>
     </g>
     <g id="text_2">
      <!-- 2 -->
      <g transform="translate(136.869374 318.238437) scale(0.1 -0.1)">
       <defs>
        <path id="DejaVuSans-32" d="M 1228 531 
L 3431 531 
L 3431 0 
L 469 0 
L 469 531 
Q 828 903 1448 1529 
Q 2069 2156 2228 2338 
Q 2531 2678 2651 2914 
Q 2772 3150 2772 3378 
Q 2772 3750 2511 3984 
Q 2250 4219 1831 4219 
Q 1534 4219 1204 4116 
Q 875 4013 500 3803 
L 500 4441 
Q 881 4594 1212 4672 
Q 1544 4750 1819 4750 
Q 2544 4750 2975 4387 
Q 3406 4025 3406 3419 
Q 3406 3131 3298 2873 
Q 3191 2616 2906 2266 
Q 2828 2175 2409 1742 
Q 1991 1309 1228 531 
z
" transform="scale(0.015625)"/>
       </defs>
       <use xlink:href="#DejaVuSans-32"/>
      </g>
     </g>
    </g>
    <g id="xtick_3">
     <g id="line2d_5">
      <path d="M 214.095793 303.64 
L 214.095793 26.88 
" clip-path="url(#p68ef1bbd80)" style="fill: none; stroke: #b0b0b0; stroke-width: 0.8; stroke-linecap: square"/>
     </g>
     <g id="line2d_6">
      <g>
       <use xlink:href="#m54fe1d906e" x="214.095793" y="303.64" style="stroke: #000000; stroke-width: 0.8"/>
      </g>
     </g>
     <g id="text_3">
      <!-- 4 -->
      <g transform="translate(210.914543 318.238437) scale(0.1 -0.1)">
       <defs>
        <path id="DejaVuSans-34" d="M 2419 4116 
L 825 1625 
L 2419 1625 
L 2419 4116 
z
M 2253 4666 
L 3047 4666 
L 3047 1625 
L 3713 1625 
L 3713 1100 
L 3047 1100 
L 3047 0 
L 2419 0 
L 2419 1100 
L 313 1100 
L 313 1709 
L 2253 4666 
z
" transform="scale(0.015625)"/>
       </defs>
       <use xlink:href="#DejaVuSans-34"/>
      </g>
     </g>
    </g>
    <g id="xtick_4">
     <g id="line2d_7">
      <path d="M 288.140962 303.64 
L 288.140962 26.88 
" clip-path="url(#p68ef1bbd80)" style="fill: none; stroke: #b0b0b0; stroke-width: 0.8; stroke-linecap: square"/>
     </g>
     <g id="line2d_8">
      <g>
       <use xlink:href="#m54fe1d906e" x="288.140962" y="303.64" style="stroke: #000000; stroke-width: 0.8"/>
      </g>
     </g>
     <g id="text_4">
      <!-- 6 -->
      <g transform="translate(284.959712 318.238437) scale(0.1 -0.1)">
       <defs>
        <path id="DejaVuSans-36" d="M 2113 2584 
Q 1688 2584 1439 2293 
Q 1191 2003 1191 1497 
Q 1191 994 1439 701 
Q 1688 409 2113 409 
Q 2538 409 2786 701 
Q 3034 994 3034 1497 
Q 3034 2003 2786 2293 
Q 2538 2584 2113 2584 
z
M 3366 4563 
L 3366 3988 
Q 3128 4100 2886 4159 
Q 2644 4219 2406 4219 
Q 1781 4219 1451 3797 
Q 1122 3375 1075 2522 
Q 1259 2794 1537 2939 
Q 1816 3084 2150 3084 
Q 2853 3084 3261 2657 
Q 3669 2231 3669 1497 
Q 3669 778 3244 343 
Q 2819 -91 2113 -91 
Q 1303 -91 875 529 
Q 447 1150 447 2328 
Q 447 3434 972 4092 
Q 1497 4750 2381 4750 
Q 2619 4750 2861 4703 
Q 3103 4656 3366 4563 
z
" transform="scale(0.015625)"/>
       </defs>
       <use xlink:href="#DejaVuSans-36"/>
      </g>
     </g>
    </g>
    <g id="xtick_5">
     <g id="line2d_9">
      <path d="M 362.186132 303.64 
L 362.186132 26.88 
" clip-path="url(#p68ef1bbd80)" style="fill: none; stroke: #b0b0b0; stroke-width: 0.8; stroke-linecap: square"/>
     </g>
     <g id="line2d_10">
      <g>
       <use xlink:href="#m54fe1d906e" x="362.186132" y="303.64" style="stroke: #000000; stroke-width: 0.8"/>
      </g>
     </g>
     <g id="text_5">
      <!-- 8 -->
      <g transform="translate(359.004882 318.238437) scale(0.1 -0.1)">
       <defs>
        <path id="DejaVuSans-38" d="M 2034 2216 
Q 1584 2216 1326 1975 
Q 1069 1734 1069 1313 
Q 1069 891 1326 650 
Q 1584 409 2034 409 
Q 2484 409 2743 651 
Q 3003 894 3003 1313 
Q 3003 1734 2745 1975 
Q 2488 2216 2034 2216 
z
M 1403 2484 
Q 997 2584 770 2862 
Q 544 3141 544 3541 
Q 544 4100 942 4425 
Q 1341 4750 2034 4750 
Q 2731 4750 3128 4425 
Q 3525 4100 3525 3541 
Q 3525 3141 3298 2862 
Q 3072 2584 2669 2484 
Q 3125 2378 3379 2068 
Q 3634 1759 3634 1313 
Q 3634 634 3220 271 
Q 2806 -91 2034 -91 
Q 1263 -91 848 271 
Q 434 634 434 1313 
Q 434 1759 690 2068 
Q 947 2378 1403 2484 
z
M 1172 3481 
Q 1172 3119 1398 2916 
Q 1625 2713 2034 2713 
Q 2441 2713 2670 2916 
Q 2900 3119 2900 3481 
Q 2900 3844 2670 4047 
Q 2441 4250 2034 4250 
Q 1625 4250 1398 4047 
Q 1172 3844 1172 3481 
z
" transform="scale(0.015625)"/>
       </defs>
       <use xlink:href="#DejaVuSans-38"/>
      </g>
     </g>
    </g>
    <g id="xtick_6">
     <g id="line2d_11">
      <path d="M 436.231301 303.64 
L 436.231301 26.88 
" clip-path="url(#p68ef1bbd80)" style="fill: none; stroke: #b0b0b0; stroke-width: 0.8; stroke-linecap: square"/>
     </g>
     <g id="line2d_12">
      <g>
       <use xlink:href="#m54fe1d906e" x="436.231301" y="303.64" style="stroke: #000000; stroke-width: 0.8"/>
      </g>
     </g>
     <g id="text_6">
      <!-- 10 -->
      <g transform="translate(429.868801 318.238437) scale(0.1 -0.1)">
       <defs>
        <path id="DejaVuSans-31" d="M 794 531 
L 1825 531 
L 1825 4091 
L 703 3866 
L 703 4441 
L 1819 4666 
L 2450 4666 
L 2450 531 
L 3481 531 
L 3481 0 
L 794 0 
L 794 531 
z
" transform="scale(0.015625)"/>
       </defs>
       <use xlink:href="#DejaVuSans-31"/>
       <use xlink:href="#DejaVuSans-30" x="63.623047"/>
      </g>
     </g>
    </g>
    <g id="xtick_7">
     <g id="line2d_13">
      <path d="M 84.516747 303.64 
L 84.516747 26.88 
" clip-path="url(#p68ef1bbd80)" style="fill: none; stroke-dasharray: 0.8,1.32; stroke-dashoffset: 0; stroke: #b0b0b0; stroke-width: 0.8"/>
     </g>
     <g id="line2d_14">
      <defs>
       <path id="mdcbd64164d" d="M 0 0 
L 0 2 
" style="stroke: #000000; stroke-width: 0.6"/>
      </defs>
      <g>
       <use xlink:href="#mdcbd64164d" x="84.516747" y="303.64" style="stroke: #000000; stroke-width: 0.6"/>
      </g>
     </g>
    </g>
    <g id="xtick_8">
     <g id="line2d_15">
      <path d="M 103.028039 303.64 
L 103.028039 26.88 
" clip-path="url(#p68ef1bbd80)" style="fill: none; stroke-dasharray: 0.8,1.32; stroke-dashoffset: 0; stroke: #b0b0b0; stroke-width: 0.8"/>
     </g>
     <g id="line2d_16">
      <g>
       <use xlink:href="#mdcbd64164d" x="103.028039" y="303.64" style="stroke: #000000; stroke-width: 0.6"/>
      </g>
     </g>
    </g>
    <g id="xtick_9">
     <g id="line2d_17">
      <path d="M 121.539331 303.64 
L 121.539331 26.88 
" clip-path="url(#p68ef1bbd80)" style="fill: none; stroke-dasharray: 0.8,1.32; stroke-dashoffset: 0; stroke: #b0b0b0; stroke-width: 0.8"/>
     </g>
     <g id="line2d_18">
      <g>
       <use xlink:href="#mdcbd64164d" x="121.539331" y="303.64" style="stroke: #000000; stroke-width: 0.6"/>
      </g>
     </g>
    </g>
    <g id="xtick_10">
     <g id="line2d_19">
      <path d="M 158.561916 303.64 
L 158.561916 26.88 
" clip-path="url(#p68ef1bbd80)" style="fill: none; stroke-dasharray: 0.8,1.32; stroke-dashoffset: 0; stroke: #b0b0b0; stroke-width: 0.8"/>
     </g>
     <g id="line2d_20">
      <g>
       <use xlink:href="#mdcbd64164d" x="158.561916" y="303.64" style="stroke: #000000; stroke-width: 0.6"/>
      </g>
     </g>
    </g>
    <g id="xtick_11">
     <g id="line2d_21">
      <path d="M 177.073208 303.64 
L 177.073208 26.88 
" clip-path="url(#p68ef1bbd80)" style="fill: none; stroke-dasharray: 0.8,1.32; stroke-dashoffset: 0; stroke: #b0b0b0; stroke-width: 0.8"/>
     </g>
     <g id="line2d_22">
      <g>
       <use xlink:href="#mdcbd64164d" x="177.073208" y="303.64" style="stroke: #000000; stroke-width: 0.6"/>
      </g>
     </g>
    </g>
    <g id="xtick_12">
     <g id="line2d_23">
      <path d="M 195.584501 303.64 
L 195.584501 26.88 
" clip-path="url(#p68ef1bbd80)" style="fill: none; stroke-dasharray: 0.8,1.32; stroke-dashoffset: 0; stroke: #b0b0b0; stroke-width: 0.8"/>
     </g>
     <g id="line2d_24">
      <g>
       <use xlink:href="#mdcbd64164d" x="195.584501" y="303.64" style="stroke: #000000; stroke-width: 0.6"/>
      </g>
     </g>
    </g>
    <g id="xtick_13">
     <g id="line2d_25">
      <path d="M 232.607085 303.64 
L 232.607085 26.88 
" clip-path="url(#p68ef1bbd80)" style="fill: none; stroke-dasharray: 0.8,1.32; stroke-dashoffset: 0; stroke: #b0b0b0; stroke-width: 0.8"/>
     </g>
     <g id="line2d_26">
      <g>
       <use xlink:href="#mdcbd64164d" x="232.607085" y="303.64" style="stroke: #000000; stroke-width: 0.6"/>
      </g>
     </g>
    </g>
    <g id="xtick_14">
     <g id="line2d_27">
      <path d="M 251.118378 303.64 
L 251.118378 26.88 
" clip-path="url(#p68ef1bbd80)" style="fill: none; stroke-dasharray: 0.8,1.32; stroke-dashoffset: 0; stroke: #b0b0b0; stroke-width: 0.8"/>
     </g>
     <g id="line2d_28">
      <g>
       <use xlink:href="#mdcbd64164d" x="251.118378" y="303.64" style="stroke: #000000; stroke-width: 0.6"/>
      </g>
     </g>
    </g>
    <g id="xtick_15">
     <g id="line2d_29">
      <path d="M 269.62967 303.64 
L 269.62967 26.88 
" clip-path="url(#p68ef1bbd80)" style="fill: none; stroke-dasharray: 0.8,1.32; stroke-dashoffset: 0; stroke: #b0b0b0; stroke-width: 0.8"/>
     </g>
     <g id="line2d_30">
      <g>
       <use xlink:href="#mdcbd64164d" x="269.62967" y="303.64" style="stroke: #000000; stroke-width: 0.6"/>
      </g>
     </g>
    </g>
    <g id="xtick_16">
     <g id="line2d_31">
      <path d="M 306.652255 303.64 
L 306.652255 26.88 
" clip-path="url(#p68ef1bbd80)" style="fill: none; stroke-dasharray: 0.8,1.32; stroke-dashoffset: 0; stroke: #b0b0b0; stroke-width: 0.8"/>
     </g>
     <g id="line2d_32">
      <g>
       <use xlink:href="#mdcbd64164d" x="306.652255" y="303.64" style="stroke: #000000; stroke-width: 0.6"/>
      </g>
     </g>
    </g>
    <g id="xtick_17">
     <g id="line2d_33">
      <path d="M 325.163547 303.64 
L 325.163547 26.88 
" clip-path="url(#p68ef1bbd80)" style="fill: none; stroke-dasharray: 0.8,1.32; stroke-dashoffset: 0; stroke: #b0b0b0; stroke-width: 0.8"/>
     </g>
     <g id="line2d_34">
      <g>
       <use xlink:href="#mdcbd64164d" x="325.163547" y="303.64" style="stroke: #000000; stroke-width: 0.6"/>
      </g>
     </g>
    </g>
    <g id="xtick_18">
     <g id="line2d_35">
      <path d="M 343.674839 303.64 
L 343.674839 26.88 
" clip-path="url(#p68ef1bbd80)" style="fill: none; stroke-dasharray: 0.8,1.32; stroke-dashoffset: 0; stroke: #b0b0b0; stroke-width: 0.8"/>
     </g>
     <g id="line2d_36">
      <g>
       <use xlink:href="#mdcbd64164d" x="343.674839" y="303.64" style="stroke: #000000; stroke-width: 0.6"/>
      </g>
     </g>
    </g>
    <g id="xtick_19">
     <g id="line2d_37">
      <path d="M 380.697424 303.64 
L 380.697424 26.88 
" clip-path="url(#p68ef1bbd80)" style="fill: none; stroke-dasharray: 0.8,1.32; stroke-dashoffset: 0; stroke: #b0b0b0; stroke-width: 0.8"/>
     </g>
     <g id="line2d_38">
      <g>
       <use xlink:href="#mdcbd64164d" x="380.697424" y="303.64" style="stroke: #000000; stroke-width: 0.6"/>
      </g>
     </g>
    </g>
    <g id="xtick_20">
     <g id="line2d_39">
      <path d="M 399.208716 303.64 
L 399.208716 26.88 
" clip-path="url(#p68ef1bbd80)" style="fill: none; stroke-dasharray: 0.8,1.32; stroke-dashoffset: 0; stroke: #b0b0b0; stroke-width: 0.8"/>
     </g>
     <g id="line2d_40">
      <g>
       <use xlink:href="#mdcbd64164d" x="399.208716" y="303.64" style="stroke: #000000; stroke-width: 0.6"/>
      </g>
     </g>
    </g>
    <g id="xtick_21">
     <g id="line2d_41">
      <path d="M 417.720008 303.64 
L 417.720008 26.88 
" clip-path="url(#p68ef1bbd80)" style="fill: none; stroke-dasharray: 0.8,1.32; stroke-dashoffset: 0; stroke: #b0b0b0; stroke-width: 0.8"/>
     </g>
     <g id="line2d_42">
      <g>
       <use xlink:href="#mdcbd64164d" x="417.720008" y="303.64" style="stroke: #000000; stroke-width: 0.6"/>
      </g>
     </g>
    </g>
    <g id="text_7">
     <!-- Время, с -->
     <g transform="translate(226.471719 331.916562) scale(0.1 -0.1)">
      <defs>
       <path id="DejaVuSans-412" d="M 1259 2228 
L 1259 519 
L 2272 519 
Q 2781 519 3026 730 
Q 3272 941 3272 1375 
Q 3272 1813 3026 2020 
Q 2781 2228 2272 2228 
L 1259 2228 
z
M 1259 4147 
L 1259 2741 
L 2194 2741 
Q 2656 2741 2882 2914 
Q 3109 3088 3109 3444 
Q 3109 3797 2882 3972 
Q 2656 4147 2194 4147 
L 1259 4147 
z
M 628 4666 
L 2241 4666 
Q 2963 4666 3353 4366 
Q 3744 4066 3744 3513 
Q 3744 3084 3544 2831 
Q 3344 2578 2956 2516 
Q 3422 2416 3680 2098 
Q 3938 1781 3938 1306 
Q 3938 681 3513 340 
Q 3088 0 2303 0 
L 628 0 
L 628 4666 
z
" transform="scale(0.015625)"/>
       <path id="DejaVuSans-440" d="M 1159 525 
L 1159 -1331 
L 581 -1331 
L 581 3500 
L 1159 3500 
L 1159 2969 
Q 1341 3281 1617 3432 
Q 1894 3584 2278 3584 
Q 2916 3584 3314 3078 
Q 3713 2572 3713 1747 
Q 3713 922 3314 415 
Q 2916 -91 2278 -91 
Q 1894 -91 1617 61 
Q 1341 213 1159 525 
z
M 3116 1747 
Q 3116 2381 2855 2742 
Q 2594 3103 2138 3103 
Q 1681 3103 1420 2742 
Q 1159 2381 1159 1747 
Q 1159 1113 1420 752 
Q 1681 391 2138 391 
Q 2594 391 2855 752 
Q 3116 1113 3116 1747 
z
" transform="scale(0.015625)"/>
       <path id="DejaVuSans-435" d="M 3597 1894 
L 3597 1613 
L 953 1613 
Q 991 1019 1311 708 
Q 1631 397 2203 397 
Q 2534 397 2845 478 
Q 3156 559 3463 722 
L 3463 178 
Q 3153 47 2828 -22 
Q 2503 -91 2169 -91 
Q 1331 -91 842 396 
Q 353 884 353 1716 
Q 353 2575 817 3079 
Q 1281 3584 2069 3584 
Q 2775 3584 3186 3129 
Q 3597 2675 3597 1894 
z
M 3022 2063 
Q 3016 2534 2758 2815 
Q 2500 3097 2075 3097 
Q 1594 3097 1305 2825 
Q 1016 2553 972 2059 
L 3022 2063 
z
" transform="scale(0.015625)"/>
       <path id="DejaVuSans-43c" d="M 581 3500 
L 1422 3500 
L 2416 1156 
L 3413 3500 
L 4247 3500 
L 4247 0 
L 3669 0 
L 3669 2950 
L 2703 672 
L 2128 672 
L 1159 2950 
L 1159 0 
L 581 0 
L 581 3500 
z
" transform="scale(0.015625)"/>
       <path id="DejaVuSans-44f" d="M 1181 2491 
Q 1181 2231 1381 2084 
Q 1581 1938 1953 1938 
L 2728 1938 
L 2728 3041 
L 1953 3041 
Q 1581 3041 1381 2897 
Q 1181 2753 1181 2491 
z
M 363 0 
L 1431 1534 
Q 1069 1616 828 1830 
Q 588 2044 588 2491 
Q 588 2997 923 3248 
Q 1259 3500 1938 3500 
L 3306 3500 
L 3306 0 
L 2728 0 
L 2728 1478 
L 2013 1478 
L 981 0 
L 363 0 
z
" transform="scale(0.015625)"/>
       <path id="DejaVuSans-2c" d="M 750 794 
L 1409 794 
L 1409 256 
L 897 -744 
L 494 -744 
L 750 256 
L 750 794 
z
" transform="scale(0.015625)"/>
       <path id="DejaVuSans-20" transform="scale(0.015625)"/>
       <path id="DejaVuSans-441" d="M 3122 3366 
L 3122 2828 
Q 2878 2963 2633 3030 
Q 2388 3097 2138 3097 
Q 1578 3097 1268 2742 
Q 959 2388 959 1747 
Q 959 1106 1268 751 
Q 1578 397 2138 397 
Q 2388 397 2633 464 
Q 2878 531 3122 666 
L 3122 134 
Q 2881 22 2623 -34 
Q 2366 -91 2075 -91 
Q 1284 -91 818 406 
Q 353 903 353 1747 
Q 353 2603 823 3093 
Q 1294 3584 2113 3584 
Q 2378 3584 2631 3529 
Q 2884 3475 3122 3366 
z
" transform="scale(0.015625)"/>
      </defs>
      <use xlink:href="#DejaVuSans-412"/>
      <use xlink:href="#DejaVuSans-440" x="68.603516"/>
      <use xlink:href="#DejaVuSans-435" x="132.080078"/>
      <use xlink:href="#DejaVuSans-43c" x="193.603516"/>
      <use xlink:href="#DejaVuSans-44f" x="269.042969"/>
      <use xlink:href="#DejaVuSans-2c" x="329.199219"/>
      <use xlink:href="#DejaVuSans-20" x="360.986328"/>
      <use xlink:href="#DejaVuSans-441" x="392.773438"/>
     </g>
    </g>
   </g>
   <g id="matplotlib.axis_2">
    <g id="ytick_1">
     <g id="line2d_43">
      <path d="M 47.72 292.082764 
L 450 292.082764 
" clip-path="url(#p68ef1bbd80)" style="fill: none; stroke: #b0b0b0; stroke-width: 0.8; stroke-linecap: square"/>
     </g>
     <g id="line2d_44">
      <defs>
       <path id="m1e8fff7b4c" d="M 0 0 
L -3.5 0 
" style="stroke: #000000; stroke-width: 0.8"/>
      </defs>
      <g>
       <use xlink:href="#m1e8fff7b4c" x="47.72" y="292.082764" style="stroke: #000000; stroke-width: 0.8"/>
      </g>
     </g>
     <g id="text_8">
      <!-- 0.0 -->
      <g transform="translate(24.816875 295.881983) scale(0.1 -0.1)">
       <defs>
        <path id="DejaVuSans-2e" d="M 684 794 
L 1344 794 
L 1344 0 
L 684 0 
L 684 794 
z
" transform="scale(0.015625)"/>
       </defs>
       <use xlink:href="#DejaVuSans-30"/>
       <use xlink:href="#DejaVuSans-2e" x="63.623047"/>
       <use xlink:href="#DejaVuSans-30" x="95.410156"/>
      </g>
     </g>
    </g>
    <g id="ytick_2">
     <g id="line2d_45">
      <path d="M 47.72 252.745679 
L 450 252.745679 
" clip-path="url(#p68ef1bbd80)" style="fill: none; stroke: #b0b0b0; stroke-width: 0.8; stroke-linecap: square"/>
     </g>
     <g id="line2d_46">
      <g>
       <use xlink:href="#m1e8fff7b4c" x="47.72" y="252.745679" style="stroke: #000000; stroke-width: 0.8"/>
      </g>
     </g>
     <g id="text_9">
      <!-- 0.5 -->
      <g transform="translate(24.816875 256.544897) scale(0.1 -0.1)">
       <defs>
        <path id="DejaVuSans-35" d="M 691 4666 
L 3169 4666 
L 3169 4134 
L 1269 4134 
L 1269 2991 
Q 1406 3038 1543 3061 
Q 1681 3084 1819 3084 
Q 2600 3084 3056 2656 
Q 3513 2228 3513 1497 
Q 3513 744 3044 326 
Q 2575 -91 1722 -91 
Q 1428 -91 1123 -41 
Q 819 9 494 109 
L 494 744 
Q 775 591 1075 516 
Q 1375 441 1709 441 
Q 2250 441 2565 725 
Q 2881 1009 2881 1497 
Q 2881 1984 2565 2268 
Q 2250 2553 1709 2553 
Q 1456 2553 1204 2497 
Q 953 2441 691 2322 
L 691 4666 
z
" transform="scale(0.015625)"/>
       </defs>
       <use xlink:href="#DejaVuSans-30"/>
       <use xlink:href="#DejaVuSans-2e" x="63.623047"/>
       <use xlink:href="#DejaVuSans-35" x="95.410156"/>
      </g>
     </g>
    </g>
    <g id="ytick_3">
     <g id="line2d_47">
      <path d="M 47.72 213.408593 
L 450 213.408593 
" clip-path="url(#p68ef1bbd80)" style="fill: none; stroke: #b0b0b0; stroke-width: 0.8; stroke-linecap: square"/>
     </g>
     <g id="line2d_48">
      <g>
       <use xlink:href="#m1e8fff7b4c" x="47.72" y="213.408593" style="stroke: #000000; stroke-width: 0.8"/>
      </g>
     </g>
     <g id="text_10">
      <!-- 1.0 -->
      <g transform="translate(24.816875 217.207812) scale(0.1 -0.1)">
       <use xlink:href="#DejaVuSans-31"/>
       <use xlink:href="#DejaVuSans-2e" x="63.623047"/>
       <use xlink:href="#DejaVuSans-30" x="95.410156"/>
      </g>
     </g>
    </g>
    <g id="ytick_4">
     <g id="line2d_49">
      <path d="M 47.72 174.071507 
L 450 174.071507 
" clip-path="url(#p68ef1bbd80)" style="fill: none; stroke: #b0b0b0; stroke-width: 0.8; stroke-linecap: square"/>
     </g>
     <g id="line2d_50">
      <g>
       <use xlink:href="#m1e8fff7b4c" x="47.72" y="174.071507" style="stroke: #000000; stroke-width: 0.8"/>
      </g>
     </g>
     <g id="text_11">
      <!-- 1.5 -->
      <g transform="translate(24.816875 177.870726) scale(0.1 -0.1)">
       <use xlink:href="#DejaVuSans-31"/>
       <use xlink:href="#DejaVuSans-2e" x="63.623047"/>
       <use xlink:href="#DejaVuSans-35" x="95.410156"/>
      </g>
     </g>
    </g>
    <g id="ytick_5">
     <g id="line2d_51">
      <path d="M 47.72 134.734422 
L 450 134.734422 
" clip-path="url(#p68ef1bbd80)" style="fill: none; stroke: #b0b0b0; stroke-width: 0.8; stroke-linecap: square"/>
     </g>
     <g id="line2d_52">
      <g>
       <use xlink:href="#m1e8fff7b4c" x="47.72" y="134.734422" style="stroke: #000000; stroke-width: 0.8"/>
      </g>
     </g>
     <g id="text_12">
      <!-- 2.0 -->
      <g transform="translate(24.816875 138.53364) scale(0.1 -0.1)">
       <use xlink:href="#DejaVuSans-32"/>
       <use xlink:href="#DejaVuSans-2e" x="63.623047"/>
       <use xlink:href="#DejaVuSans-30" x="95.410156"/>
      </g>
     </g>
    </g>
    <g id="ytick_6">
     <g id="line2d_53">
      <path d="M 47.72 95.397336 
L 450 95.397336 
" clip-path="url(#p68ef1bbd80)" style="fill: none; stroke: #b0b0b0; stroke-width: 0.8; stroke-linecap: square"/>
     </g>
     <g id="line2d_54">
      <g>
       <use xlink:href="#m1e8fff7b4c" x="47.72" y="95.397336" style="stroke: #000000; stroke-width: 0.8"/>
      </g>
     </g>
     <g id="text_13">
      <!-- 2.5 -->
      <g transform="translate(24.816875 99.196555) scale(0.1 -0.1)">
       <use xlink:href="#DejaVuSans-32"/>
       <use xlink:href="#DejaVuSans-2e" x="63.623047"/>
       <use xlink:href="#DejaVuSans-35" x="95.410156"/>
      </g>
     </g>
    </g>
    <g id="ytick_7">
     <g id="line2d_55">
      <path d="M 47.72 56.06025 
L 450 56.06025 
" clip-path="url(#p68ef1bbd80)" style="fill: none; stroke: #b0b0b0; stroke-width: 0.8; stroke-linecap: square"/>
     </g>
     <g id="line2d_56">
      <g>
       <use xlink:href="#m1e8fff7b4c" x="47.72" y="56.06025" style="stroke: #000000; stroke-width: 0.8"/>
      </g>
     </g>
     <g id="text_14">
      <!-- 3.0 -->
      <g transform="translate(24.816875 59.859469) scale(0.1 -0.1)">
       <defs>
        <path id="DejaVuSans-33" d="M 2597 2516 
Q 3050 2419 3304 2112 
Q 3559 1806 3559 1356 
Q 3559 666 3084 287 
Q 2609 -91 1734 -91 
Q 1441 -91 1130 -33 
Q 819 25 488 141 
L 488 750 
Q 750 597 1062 519 
Q 1375 441 1716 441 
Q 2309 441 2620 675 
Q 2931 909 2931 1356 
Q 2931 1769 2642 2001 
Q 2353 2234 1838 2234 
L 1294 2234 
L 1294 2753 
L 1863 2753 
Q 2328 2753 2575 2939 
Q 2822 3125 2822 3475 
Q 2822 3834 2567 4026 
Q 2313 4219 1838 4219 
Q 1578 4219 1281 4162 
Q 984 4106 628 3988 
L 628 4550 
Q 988 4650 1302 4700 
Q 1616 4750 1894 4750 
Q 2613 4750 3031 4423 
Q 3450 4097 3450 3541 
Q 3450 3153 3228 2886 
Q 3006 2619 2597 2516 
z
" transform="scale(0.015625)"/>
       </defs>
       <use xlink:href="#DejaVuSans-33"/>
       <use xlink:href="#DejaVuSans-2e" x="63.623047"/>
       <use xlink:href="#DejaVuSans-30" x="95.410156"/>
      </g>
     </g>
    </g>
    <g id="ytick_8">
     <g id="line2d_57">
      <path d="M 47.72 299.950181 
L 450 299.950181 
" clip-path="url(#p68ef1bbd80)" style="fill: none; stroke-dasharray: 0.8,1.32; stroke-dashoffset: 0; stroke: #b0b0b0; stroke-width: 0.8"/>
     </g>
     <g id="line2d_58">
      <defs>
       <path id="m24b3ef23ec" d="M 0 0 
L -2 0 
" style="stroke: #000000; stroke-width: 0.6"/>
      </defs>
      <g>
       <use xlink:href="#m24b3ef23ec" x="47.72" y="299.950181" style="stroke: #000000; stroke-width: 0.6"/>
      </g>
     </g>
    </g>
    <g id="ytick_9">
     <g id="line2d_59">
      <path d="M 47.72 284.215347 
L 450 284.215347 
" clip-path="url(#p68ef1bbd80)" style="fill: none; stroke-dasharray: 0.8,1.32; stroke-dashoffset: 0; stroke: #b0b0b0; stroke-width: 0.8"/>
     </g>
     <g id="line2d_60">
      <g>
       <use xlink:href="#m24b3ef23ec" x="47.72" y="284.215347" style="stroke: #000000; stroke-width: 0.6"/>
      </g>
     </g>
    </g>
    <g id="ytick_10">
     <g id="line2d_61">
      <path d="M 47.72 276.34793 
L 450 276.34793 
" clip-path="url(#p68ef1bbd80)" style="fill: none; stroke-dasharray: 0.8,1.32; stroke-dashoffset: 0; stroke: #b0b0b0; stroke-width: 0.8"/>
     </g>
     <g id="line2d_62">
      <g>
       <use xlink:href="#m24b3ef23ec" x="47.72" y="276.34793" style="stroke: #000000; stroke-width: 0.6"/>
      </g>
     </g>
    </g>
    <g id="ytick_11">
     <g id="line2d_63">
      <path d="M 47.72 268.480513 
L 450 268.480513 
" clip-path="url(#p68ef1bbd80)" style="fill: none; stroke-dasharray: 0.8,1.32; stroke-dashoffset: 0; stroke: #b0b0b0; stroke-width: 0.8"/>
     </g>
     <g id="line2d_64">
      <g>
       <use xlink:href="#m24b3ef23ec" x="47.72" y="268.480513" style="stroke: #000000; stroke-width: 0.6"/>
      </g>
     </g>
    </g>
    <g id="ytick_12">
     <g id="line2d_65">
      <path d="M 47.72 260.613096 
L 450 260.613096 
" clip-path="url(#p68ef1bbd80)" style="fill: none; stroke-dasharray: 0.8,1.32; stroke-dashoffset: 0; stroke: #b0b0b0; stroke-width: 0.8"/>
     </g>
     <g id="line2d_66">
      <g>
       <use xlink:href="#m24b3ef23ec" x="47.72" y="260.613096" style="stroke: #000000; stroke-width: 0.6"/>
      </g>
     </g>
    </g>
    <g id="ytick_13">
     <g id="line2d_67">
      <path d="M 47.72 244.878261 
L 450 244.878261 
" clip-path="url(#p68ef1bbd80)" style="fill: none; stroke-dasharray: 0.8,1.32; stroke-dashoffset: 0; stroke: #b0b0b0; stroke-width: 0.8"/>
     </g>
     <g id="line2d_68">
      <g>
       <use xlink:href="#m24b3ef23ec" x="47.72" y="244.878261" style="stroke: #000000; stroke-width: 0.6"/>
      </g>
     </g>
    </g>
    <g id="ytick_14">
     <g id="line2d_69">
      <path d="M 47.72 237.010844 
L 450 237.010844 
" clip-path="url(#p68ef1bbd80)" style="fill: none; stroke-dasharray: 0.8,1.32; stroke-dashoffset: 0; stroke: #b0b0b0; stroke-width: 0.8"/>
     </g>
     <g id="line2d_70">
      <g>
       <use xlink:href="#m24b3ef23ec" x="47.72" y="237.010844" style="stroke: #000000; stroke-width: 0.6"/>
      </g>
     </g>
    </g>
    <g id="ytick_15">
     <g id="line2d_71">
      <path d="M 47.72 229.143427 
L 450 229.143427 
" clip-path="url(#p68ef1bbd80)" style="fill: none; stroke-dasharray: 0.8,1.32; stroke-dashoffset: 0; stroke: #b0b0b0; stroke-width: 0.8"/>
     </g>
     <g id="line2d_72">
      <g>
       <use xlink:href="#m24b3ef23ec" x="47.72" y="229.143427" style="stroke: #000000; stroke-width: 0.6"/>
      </g>
     </g>
    </g>
    <g id="ytick_16">
     <g id="line2d_73">
      <path d="M 47.72 221.27601 
L 450 221.27601 
" clip-path="url(#p68ef1bbd80)" style="fill: none; stroke-dasharray: 0.8,1.32; stroke-dashoffset: 0; stroke: #b0b0b0; stroke-width: 0.8"/>
     </g>
     <g id="line2d_74">
      <g>
       <use xlink:href="#m24b3ef23ec" x="47.72" y="221.27601" style="stroke: #000000; stroke-width: 0.6"/>
      </g>
     </g>
    </g>
    <g id="ytick_17">
     <g id="line2d_75">
      <path d="M 47.72 205.541176 
L 450 205.541176 
" clip-path="url(#p68ef1bbd80)" style="fill: none; stroke-dasharray: 0.8,1.32; stroke-dashoffset: 0; stroke: #b0b0b0; stroke-width: 0.8"/>
     </g>
     <g id="line2d_76">
      <g>
       <use xlink:href="#m24b3ef23ec" x="47.72" y="205.541176" style="stroke: #000000; stroke-width: 0.6"/>
      </g>
     </g>
    </g>
    <g id="ytick_18">
     <g id="line2d_77">
      <path d="M 47.72 197.673759 
L 450 197.673759 
" clip-path="url(#p68ef1bbd80)" style="fill: none; stroke-dasharray: 0.8,1.32; stroke-dashoffset: 0; stroke: #b0b0b0; stroke-width: 0.8"/>
     </g>
     <g id="line2d_78">
      <g>
       <use xlink:href="#m24b3ef23ec" x="47.72" y="197.673759" style="stroke: #000000; stroke-width: 0.6"/>
      </g>
     </g>
    </g>
    <g id="ytick_19">
     <g id="line2d_79">
      <path d="M 47.72 189.806341 
L 450 189.806341 
" clip-path="url(#p68ef1bbd80)" style="fill: none; stroke-dasharray: 0.8,1.32; stroke-dashoffset: 0; stroke: #b0b0b0; stroke-width: 0.8"/>
     </g>
     <g id="line2d_80">
      <g>
       <use xlink:href="#m24b3ef23ec" x="47.72" y="189.806341" style="stroke: #000000; stroke-width: 0.6"/>
      </g>
     </g>
    </g>
    <g id="ytick_20">
     <g id="line2d_81">
      <path d="M 47.72 181.938924 
L 450 181.938924 
" clip-path="url(#p68ef1bbd80)" style="fill: none; stroke-dasharray: 0.8,1.32; stroke-dashoffset: 0; stroke: #b0b0b0; stroke-width: 0.8"/>
     </g>
     <g id="line2d_82">
      <g>
       <use xlink:href="#m24b3ef23ec" x="47.72" y="181.938924" style="stroke: #000000; stroke-width: 0.6"/>
      </g>
     </g>
    </g>
    <g id="ytick_21">
     <g id="line2d_83">
      <path d="M 47.72 166.20409 
L 450 166.20409 
" clip-path="url(#p68ef1bbd80)" style="fill: none; stroke-dasharray: 0.8,1.32; stroke-dashoffset: 0; stroke: #b0b0b0; stroke-width: 0.8"/>
     </g>
     <g id="line2d_84">
      <g>
       <use xlink:href="#m24b3ef23ec" x="47.72" y="166.20409" style="stroke: #000000; stroke-width: 0.6"/>
      </g>
     </g>
    </g>
    <g id="ytick_22">
     <g id="line2d_85">
      <path d="M 47.72 158.336673 
L 450 158.336673 
" clip-path="url(#p68ef1bbd80)" style="fill: none; stroke-dasharray: 0.8,1.32; stroke-dashoffset: 0; stroke: #b0b0b0; stroke-width: 0.8"/>
     </g>
     <g id="line2d_86">
      <g>
       <use xlink:href="#m24b3ef23ec" x="47.72" y="158.336673" style="stroke: #000000; stroke-width: 0.6"/>
      </g>
     </g>
    </g>
    <g id="ytick_23">
     <g id="line2d_87">
      <path d="M 47.72 150.469256 
L 450 150.469256 
" clip-path="url(#p68ef1bbd80)" style="fill: none; stroke-dasharray: 0.8,1.32; stroke-dashoffset: 0; stroke: #b0b0b0; stroke-width: 0.8"/>
     </g>
     <g id="line2d_88">
      <g>
       <use xlink:href="#m24b3ef23ec" x="47.72" y="150.469256" style="stroke: #000000; stroke-width: 0.6"/>
      </g>
     </g>
    </g>
    <g id="ytick_24">
     <g id="line2d_89">
      <path d="M 47.72 142.601839 
L 450 142.601839 
" clip-path="url(#p68ef1bbd80)" style="fill: none; stroke-dasharray: 0.8,1.32; stroke-dashoffset: 0; stroke: #b0b0b0; stroke-width: 0.8"/>
     </g>
     <g id="line2d_90">
      <g>
       <use xlink:href="#m24b3ef23ec" x="47.72" y="142.601839" style="stroke: #000000; stroke-width: 0.6"/>
      </g>
     </g>
    </g>
    <g id="ytick_25">
     <g id="line2d_91">
      <path d="M 47.72 126.867004 
L 450 126.867004 
" clip-path="url(#p68ef1bbd80)" style="fill: none; stroke-dasharray: 0.8,1.32; stroke-dashoffset: 0; stroke: #b0b0b0; stroke-width: 0.8"/>
     </g>
     <g id="line2d_92">
      <g>
       <use xlink:href="#m24b3ef23ec" x="47.72" y="126.867004" style="stroke: #000000; stroke-width: 0.6"/>
      </g>
     </g>
    </g>
    <g id="ytick_26">
     <g id="line2d_93">
      <path d="M 47.72 118.999587 
L 450 118.999587 
" clip-path="url(#p68ef1bbd80)" style="fill: none; stroke-dasharray: 0.8,1.32; stroke-dashoffset: 0; stroke: #b0b0b0; stroke-width: 0.8"/>
     </g>
     <g id="line2d_94">
      <g>
       <use xlink:href="#m24b3ef23ec" x="47.72" y="118.999587" style="stroke: #000000; stroke-width: 0.6"/>
      </g>
     </g>
    </g>
    <g id="ytick_27">
     <g id="line2d_95">
      <path d="M 47.72 111.13217 
L 450 111.13217 
" clip-path="url(#p68ef1bbd80)" style="fill: none; stroke-dasharray: 0.8,1.32; stroke-dashoffset: 0; stroke: #b0b0b0; stroke-width: 0.8"/>
     </g>
     <g id="line2d_96">
      <g>
       <use xlink:href="#m24b3ef23ec" x="47.72" y="111.13217" style="stroke: #000000; stroke-width: 0.6"/>
      </g>
     </g>
    </g>
    <g id="ytick_28">
     <g id="line2d_97">
      <path d="M 47.72 103.264753 
L 450 103.264753 
" clip-path="url(#p68ef1bbd80)" style="fill: none; stroke-dasharray: 0.8,1.32; stroke-dashoffset: 0; stroke: #b0b0b0; stroke-width: 0.8"/>
     </g>
     <g id="line2d_98">
      <g>
       <use xlink:href="#m24b3ef23ec" x="47.72" y="103.264753" style="stroke: #000000; stroke-width: 0.6"/>
      </g>
     </g>
    </g>
    <g id="ytick_29">
     <g id="line2d_99">
      <path d="M 47.72 87.529919 
L 450 87.529919 
" clip-path="url(#p68ef1bbd80)" style="fill: none; stroke-dasharray: 0.8,1.32; stroke-dashoffset: 0; stroke: #b0b0b0; stroke-width: 0.8"/>
     </g>
     <g id="line2d_100">
      <g>
       <use xlink:href="#m24b3ef23ec" x="47.72" y="87.529919" style="stroke: #000000; stroke-width: 0.6"/>
      </g>
     </g>
    </g>
    <g id="ytick_30">
     <g id="line2d_101">
      <path d="M 47.72 79.662502 
L 450 79.662502 
" clip-path="url(#p68ef1bbd80)" style="fill: none; stroke-dasharray: 0.8,1.32; stroke-dashoffset: 0; stroke: #b0b0b0; stroke-width: 0.8"/>
     </g>
     <g id="line2d_102">
      <g>
       <use xlink:href="#m24b3ef23ec" x="47.72" y="79.662502" style="stroke: #000000; stroke-width: 0.6"/>
      </g>
     </g>
    </g>
    <g id="ytick_31">
     <g id="line2d_103">
      <path d="M 47.72 71.795084 
L 450 71.795084 
" clip-path="url(#p68ef1bbd80)" style="fill: none; stroke-dasharray: 0.8,1.32; stroke-dashoffset: 0; stroke: #b0b0b0; stroke-width: 0.8"/>
     </g>
     <g id="line2d_104">
      <g>
       <use xlink:href="#m24b3ef23ec" x="47.72" y="71.795084" style="stroke: #000000; stroke-width: 0.6"/>
      </g>
     </g>
    </g>
    <g id="ytick_32">
     <g id="line2d_105">
      <path d="M 47.72 63.927667 
L 450 63.927667 
" clip-path="url(#p68ef1bbd80)" style="fill: none; stroke-dasharray: 0.8,1.32; stroke-dashoffset: 0; stroke: #b0b0b0; stroke-width: 0.8"/>
     </g>
     <g id="line2d_106">
      <g>
       <use xlink:href="#m24b3ef23ec" x="47.72" y="63.927667" style="stroke: #000000; stroke-width: 0.6"/>
      </g>
     </g>
    </g>
    <g id="ytick_33">
     <g id="line2d_107">
      <path d="M 47.72 48.192833 
L 450 48.192833 
" clip-path="url(#p68ef1bbd80)" style="fill: none; stroke-dasharray: 0.8,1.32; stroke-dashoffset: 0; stroke: #b0b0b0; stroke-width: 0.8"/>
     </g>
     <g id="line2d_108">
      <g>
       <use xlink:href="#m24b3ef23ec" x="47.72" y="48.192833" style="stroke: #000000; stroke-width: 0.6"/>
      </g>
     </g>
    </g>
    <g id="ytick_34">
     <g id="line2d_109">
      <path d="M 47.72 40.325416 
L 450 40.325416 
" clip-path="url(#p68ef1bbd80)" style="fill: none; stroke-dasharray: 0.8,1.32; stroke-dashoffset: 0; stroke: #b0b0b0; stroke-width: 0.8"/>
     </g>
     <g id="line2d_110">
      <g>
       <use xlink:href="#m24b3ef23ec" x="47.72" y="40.325416" style="stroke: #000000; stroke-width: 0.6"/>
      </g>
     </g>
    </g>
    <g id="ytick_35">
     <g id="line2d_111">
      <path d="M 47.72 32.457999 
L 450 32.457999 
" clip-path="url(#p68ef1bbd80)" style="fill: none; stroke-dasharray: 0.8,1.32; stroke-dashoffset: 0; stroke: #b0b0b0; stroke-width: 0.8"/>
     </g>
     <g id="line2d_112">
      <g>
       <use xlink:href="#m24b3ef23ec" x="47.72" y="32.457999" style="stroke: #000000; stroke-width: 0.6"/>
      </g>
     </g>
    </g>
    <g id="text_15">
     <!-- Напряжение, В -->
     <g transform="translate(18.737188 205.319375) rotate(-90) scale(0.1 -0.1)">
      <defs>
       <path id="DejaVuSans-41d" d="M 628 4666 
L 1259 4666 
L 1259 2753 
L 3553 2753 
L 3553 4666 
L 4184 4666 
L 4184 0 
L 3553 0 
L 3553 2222 
L 1259 2222 
L 1259 0 
L 628 0 
L 628 4666 
z
" transform="scale(0.015625)"/>
       <path id="DejaVuSans-430" d="M 2194 1759 
Q 1497 1759 1228 1600 
Q 959 1441 959 1056 
Q 959 750 1161 570 
Q 1363 391 1709 391 
Q 2188 391 2477 730 
Q 2766 1069 2766 1631 
L 2766 1759 
L 2194 1759 
z
M 3341 1997 
L 3341 0 
L 2766 0 
L 2766 531 
Q 2569 213 2275 61 
Q 1981 -91 1556 -91 
Q 1019 -91 701 211 
Q 384 513 384 1019 
Q 384 1609 779 1909 
Q 1175 2209 1959 2209 
L 2766 2209 
L 2766 2266 
Q 2766 2663 2505 2880 
Q 2244 3097 1772 3097 
Q 1472 3097 1187 3025 
Q 903 2953 641 2809 
L 641 3341 
Q 956 3463 1253 3523 
Q 1550 3584 1831 3584 
Q 2591 3584 2966 3190 
Q 3341 2797 3341 1997 
z
" transform="scale(0.015625)"/>
       <path id="DejaVuSans-43f" d="M 3603 3500 
L 3603 0 
L 3025 0 
L 3025 3041 
L 1159 3041 
L 1159 0 
L 581 0 
L 581 3500 
L 3603 3500 
z
" transform="scale(0.015625)"/>
       <path id="DejaVuSans-436" d="M 2597 3500 
L 3169 3500 
L 3169 1856 
L 4697 3500 
L 5366 3500 
L 4109 2153 
L 5547 0 
L 4931 0 
L 3753 1769 
L 3169 1141 
L 3169 0 
L 2597 0 
L 2597 1141 
L 2013 1769 
L 834 0 
L 219 0 
L 1656 2153 
L 400 3500 
L 1069 3500 
L 2597 1856 
L 2597 3500 
z
" transform="scale(0.015625)"/>
       <path id="DejaVuSans-43d" d="M 581 3500 
L 1159 3500 
L 1159 2072 
L 3025 2072 
L 3025 3500 
L 3603 3500 
L 3603 0 
L 3025 0 
L 3025 1613 
L 1159 1613 
L 1159 0 
L 581 0 
L 581 3500 
z
" transform="scale(0.015625)"/>
       <path id="DejaVuSans-438" d="M 3578 3500 
L 3578 0 
L 3006 0 
L 3006 2809 
L 1319 0 
L 581 0 
L 581 3500 
L 1153 3500 
L 1153 697 
L 2838 3500 
L 3578 3500 
z
" transform="scale(0.015625)"/>
      </defs>
      <use xlink:href="#DejaVuSans-41d"/>
      <use xlink:href="#DejaVuSans-430" x="75.195312"/>
      <use xlink:href="#DejaVuSans-43f" x="136.474609"/>
      <use xlink:href="#DejaVuSans-440" x="201.855469"/>
      <use xlink:href="#DejaVuSans-44f" x="265.332031"/>
      <use xlink:href="#DejaVuSans-436" x="325.488281"/>
      <use xlink:href="#DejaVuSans-435" x="415.576172"/>
      <use xlink:href="#DejaVuSans-43d" x="477.099609"/>
      <use xlink:href="#DejaVuSans-438" x="542.480469"/>
      <use xlink:href="#DejaVuSans-435" x="607.470703"/>
      <use xlink:href="#DejaVuSans-2c" x="668.994141"/>
      <use xlink:href="#DejaVuSans-20" x="700.78125"/>
      <use xlink:href="#DejaVuSans-412" x="732.568359"/>
     </g>
    </g>
   </g>
   <g id="line2d_113">
    <path d="M 66.005455 291.06 
L 66.413157 286.968943 
L 67.636264 280.832358 
L 68.043967 276.741301 
L 68.859372 272.650244 
L 69.267074 268.559187 
L 69.674777 268.559187 
L 70.082479 264.46813 
L 70.490181 264.46813 
L 70.897884 260.377073 
L 71.305586 260.377073 
L 71.713289 254.240488 
L 77.01342 227.648618 
L 77.421123 227.648618 
L 77.828825 223.557561 
L 79.459635 215.375447 
L 79.867338 215.375447 
L 80.27504 211.28439 
L 80.682742 211.28439 
L 83.944362 194.920163 
L 84.352064 194.920163 
L 85.982874 186.738049 
L 86.390577 186.738049 
L 88.021386 178.555935 
L 88.429089 178.555935 
L 89.244494 174.464878 
L 89.652196 174.464878 
L 90.467601 170.373821 
L 90.875304 170.373821 
L 91.690708 166.282764 
L 92.098411 166.282764 
L 92.913816 162.191707 
L 93.729221 162.191707 
L 94.136923 158.10065 
L 94.544626 158.10065 
L 94.952328 156.055122 
L 95.36003 156.055122 
L 96.175435 151.964065 
L 96.583138 151.964065 
L 96.99084 149.918537 
L 97.398543 149.918537 
L 98.213948 145.82748 
L 99.029352 145.82748 
L 99.844757 141.736423 
L 100.660162 141.736423 
L 101.475567 137.645366 
L 101.883269 137.645366 
L 102.290972 135.599837 
L 102.698674 135.599837 
L 103.106377 133.554309 
L 103.514079 133.554309 
L 103.921782 131.50878 
L 104.329484 131.50878 
L 104.737187 129.463252 
L 105.960294 129.463252 
L 106.367996 125.372195 
L 107.183401 125.372195 
L 107.591104 123.326667 
L 107.998806 123.326667 
L 108.406509 121.281138 
L 109.221913 121.281138 
L 109.629616 119.23561 
L 110.037318 119.23561 
L 110.445021 117.190081 
L 110.852723 117.190081 
L 111.260426 115.144553 
L 112.483533 115.144553 
L 113.298938 111.053496 
L 114.114343 111.053496 
L 114.522045 109.007967 
L 115.33745 109.007967 
L 115.745153 106.962439 
L 116.152855 106.962439 
L 116.560557 104.916911 
L 117.783665 104.916911 
L 118.191367 102.871382 
L 118.59907 102.871382 
L 119.006772 100.825854 
L 119.822177 100.825854 
L 120.229879 98.780325 
L 121.452987 98.780325 
L 122.268392 94.689268 
L 124.714606 94.689268 
L 125.530011 90.598211 
L 127.160821 90.598211 
L 127.568523 88.552683 
L 128.791631 88.552683 
L 129.199333 86.507154 
L 130.014738 86.507154 
L 130.42244 84.461626 
L 131.237845 84.461626 
L 131.645548 82.416098 
L 133.276358 82.416098 
L 133.68406 80.370569 
L 135.31487 80.370569 
L 135.722572 78.325041 
L 137.353382 78.325041 
L 137.761084 76.279512 
L 139.391894 76.279512 
L 139.799597 74.233984 
L 140.615002 74.233984 
L 141.022704 72.188455 
L 141.430406 74.233984 
L 141.838109 72.188455 
L 143.061216 72.188455 
L 143.468919 70.142927 
L 146.322836 70.142927 
L 146.730538 68.097398 
L 148.76905 68.097398 
L 149.176753 66.05187 
L 151.215265 66.05187 
L 151.622967 64.006341 
L 153.253777 64.006341 
L 153.66148 61.960813 
L 158.146207 61.960813 
L 158.553909 59.915285 
L 161.815529 59.915285 
L 162.223231 57.869756 
L 162.630933 59.915285 
L 163.038636 57.869756 
L 165.077148 57.869756 
L 165.484851 55.824228 
L 165.892553 57.869756 
L 166.300255 55.824228 
L 169.969577 55.824228 
L 170.37728 53.778699 
L 174.046602 53.778699 
L 174.454304 51.733171 
L 178.123626 51.733171 
L 178.531329 49.687642 
L 178.939031 51.733171 
L 179.346734 51.733171 
L 179.754436 49.687642 
L 183.423758 49.687642 
L 183.83146 47.642114 
L 184.239163 49.687642 
L 184.646865 49.687642 
L 185.054568 47.642114 
L 185.46227 49.687642 
L 185.869973 49.687642 
L 186.277675 47.642114 
L 189.539295 47.642114 
L 189.946997 45.596585 
L 190.3547 47.642114 
L 190.762402 47.642114 
L 191.170104 45.596585 
L 191.577807 45.596585 
L 191.985509 47.642114 
L 193.208617 47.642114 
L 193.616319 45.596585 
L 201.362665 45.596585 
L 201.770368 43.551057 
L 202.17807 45.596585 
L 202.585773 43.551057 
L 211.555227 43.551057 
L 211.962929 41.505528 
L 212.370631 41.505528 
L 212.778334 43.551057 
L 213.186036 43.551057 
L 213.593739 41.505528 
L 214.001441 41.505528 
L 214.409144 43.551057 
L 214.816846 41.505528 
L 221.747788 41.505528 
L 222.15549 39.46 
L 222.563192 43.551057 
L 222.970895 45.596585 
L 223.378597 45.596585 
L 223.7863 49.687642 
L 224.601705 53.778699 
L 225.009407 57.869756 
L 225.41711 57.869756 
L 225.824812 61.960813 
L 226.232514 61.960813 
L 226.640217 66.05187 
L 227.455622 70.142927 
L 227.863324 70.142927 
L 228.271027 74.233984 
L 228.678729 74.233984 
L 232.755754 94.689268 
L 233.163456 94.689268 
L 235.201968 104.916911 
L 235.609671 104.916911 
L 236.017373 109.007967 
L 236.425076 109.007967 
L 236.832778 111.053496 
L 237.24048 111.053496 
L 239.278993 121.281138 
L 239.686695 121.281138 
L 241.317505 129.463252 
L 241.725207 129.463252 
L 242.540612 133.554309 
L 242.948315 133.554309 
L 243.356017 135.599837 
L 243.763719 135.599837 
L 244.986827 141.736423 
L 245.394529 141.736423 
L 245.802232 143.781951 
L 246.209934 143.781951 
L 247.025339 147.873008 
L 247.433041 147.873008 
L 248.248446 151.964065 
L 248.656149 151.964065 
L 249.063851 154.009593 
L 249.471554 154.009593 
L 249.879256 156.055122 
L 250.286959 156.055122 
L 250.694661 158.10065 
L 251.102363 158.10065 
L 251.510066 160.146179 
L 251.917768 160.146179 
L 252.325471 162.191707 
L 252.733173 162.191707 
L 253.140876 164.237236 
L 253.548578 164.237236 
L 254.363983 168.328293 
L 255.179388 168.328293 
L 255.58709 170.373821 
L 255.994793 170.373821 
L 256.402495 172.41935 
L 256.810198 172.41935 
L 257.625603 176.510407 
L 258.441007 176.510407 
L 258.84871 178.555935 
L 259.256412 178.555935 
L 259.664115 180.601463 
L 260.071817 180.601463 
L 260.47952 182.646992 
L 260.887222 182.646992 
L 261.294924 184.69252 
L 262.110329 184.69252 
L 262.518032 186.738049 
L 262.925734 186.738049 
L 263.333437 188.783577 
L 263.741139 188.783577 
L 264.148842 190.829106 
L 264.556544 190.829106 
L 264.964246 192.874634 
L 266.187354 192.874634 
L 267.002759 196.965691 
L 267.818164 196.965691 
L 268.225866 199.01122 
L 268.633568 199.01122 
L 269.041271 201.056748 
L 270.264378 201.056748 
L 270.672081 203.102276 
L 271.079783 203.102276 
L 271.487486 205.147805 
L 272.30289 205.147805 
L 272.710593 207.193333 
L 273.118295 207.193333 
L 273.525998 209.238862 
L 274.341403 209.238862 
L 274.749105 211.28439 
L 275.972212 211.28439 
L 276.379915 213.329919 
L 277.19532 213.329919 
L 277.603022 215.375447 
L 278.418427 215.375447 
L 278.82613 217.420976 
L 280.049237 217.420976 
L 280.456939 219.466504 
L 280.864642 219.466504 
L 281.272344 221.512033 
L 282.495452 221.512033 
L 282.903154 223.557561 
L 283.718559 223.557561 
L 284.126261 225.603089 
L 284.533964 225.603089 
L 284.941666 227.648618 
L 287.387881 227.648618 
L 287.795583 229.694146 
L 288.610988 229.694146 
L 289.018691 231.739675 
L 289.834095 231.739675 
L 290.241798 233.785203 
L 291.872608 233.785203 
L 292.28031 235.830732 
L 293.503417 235.830732 
L 293.91112 237.87626 
L 294.726525 237.87626 
L 295.134227 239.921789 
L 296.765037 239.921789 
L 297.172739 241.967317 
L 298.803549 241.967317 
L 299.211252 244.012846 
L 299.618954 241.967317 
L 300.026657 244.012846 
L 300.842061 244.012846 
L 301.249764 246.058374 
L 302.880574 246.058374 
L 303.288276 248.103902 
L 304.919086 248.103902 
L 305.326788 250.149431 
L 306.957598 250.149431 
L 307.3653 252.194959 
L 309.811515 252.194959 
L 310.219218 254.240488 
L 311.850027 254.240488 
L 312.25773 256.286016 
L 313.88854 256.286016 
L 314.296242 258.331545 
L 314.703944 256.286016 
L 315.111647 258.331545 
L 316.334754 258.331545 
L 316.742457 260.377073 
L 320.819481 260.377073 
L 321.227184 262.422602 
L 324.081101 262.422602 
L 324.488803 264.46813 
L 326.527315 264.46813 
L 326.935018 266.513659 
L 330.60434 266.513659 
L 331.012042 268.559187 
L 335.089067 268.559187 
L 335.496769 270.604715 
L 338.758389 270.604715 
L 339.166091 272.650244 
L 339.573793 270.604715 
L 339.981496 272.650244 
L 344.466223 272.650244 
L 344.873925 274.695772 
L 348.543247 274.695772 
L 348.95095 276.741301 
L 355.474189 276.741301 
L 355.881891 278.786829 
L 362.40513 278.786829 
L 362.812833 280.832358 
L 363.220535 278.786829 
L 363.628238 280.832358 
L 370.151477 280.832358 
L 370.559179 282.877886 
L 379.12093 282.877886 
L 379.528633 284.923415 
L 379.936335 282.877886 
L 381.159443 282.877886 
L 381.567145 284.923415 
L 381.974847 284.923415 
L 382.38255 282.877886 
L 382.790252 284.923415 
L 390.944301 284.923415 
L 391.352004 286.968943 
L 391.759706 284.923415 
L 395.021326 284.923415 
L 395.429028 286.968943 
L 396.244433 286.968943 
L 396.652135 284.923415 
L 397.059838 286.968943 
L 408.067804 286.968943 
L 408.475506 289.014472 
L 408.883209 286.968943 
L 409.698614 286.968943 
L 410.106316 289.014472 
L 431.306843 289.014472 
L 431.714545 291.06 
L 431.714545 291.06 
" clip-path="url(#p68ef1bbd80)" style="fill: none; stroke: #0000ff; stroke-width: 2; stroke-linecap: square"/>
    <defs>
     <path id="mc1ae4a0f24" d="M 0 2 
C 0.530406 2 1.03916 1.789267 1.414214 1.414214 
C 1.789267 1.03916 2 0.530406 2 0 
C 2 -0.530406 1.789267 -1.03916 1.414214 -1.414214 
C 1.03916 -1.789267 0.530406 -2 0 -2 
C -0.530406 -2 -1.03916 -1.789267 -1.414214 -1.414214 
C -1.789267 -1.03916 -2 -0.530406 -2 0 
C -2 0.530406 -1.789267 1.03916 -1.414214 1.414214 
C -1.03916 1.789267 -0.530406 2 0 2 
z
" style="stroke: #0000ff"/>
    </defs>
    <g clip-path="url(#p68ef1bbd80)">
     <use xlink:href="#mc1ae4a0f24" x="66.005455" y="291.06" style="fill: #0000ff; stroke: #0000ff"/>
     <use xlink:href="#mc1ae4a0f24" x="74.159503" y="241.967317" style="fill: #0000ff; stroke: #0000ff"/>
     <use xlink:href="#mc1ae4a0f24" x="82.313552" y="203.102276" style="fill: #0000ff; stroke: #0000ff"/>
     <use xlink:href="#mc1ae4a0f24" x="90.467601" y="170.373821" style="fill: #0000ff; stroke: #0000ff"/>
     <use xlink:href="#mc1ae4a0f24" x="98.62165" y="145.82748" style="fill: #0000ff; stroke: #0000ff"/>
     <use xlink:href="#mc1ae4a0f24" x="106.775699" y="125.372195" style="fill: #0000ff; stroke: #0000ff"/>
     <use xlink:href="#mc1ae4a0f24" x="114.929748" y="109.007967" style="fill: #0000ff; stroke: #0000ff"/>
     <use xlink:href="#mc1ae4a0f24" x="123.083796" y="94.689268" style="fill: #0000ff; stroke: #0000ff"/>
     <use xlink:href="#mc1ae4a0f24" x="131.237845" y="84.461626" style="fill: #0000ff; stroke: #0000ff"/>
     <use xlink:href="#mc1ae4a0f24" x="139.391894" y="76.279512" style="fill: #0000ff; stroke: #0000ff"/>
     <use xlink:href="#mc1ae4a0f24" x="147.545943" y="68.097398" style="fill: #0000ff; stroke: #0000ff"/>
     <use xlink:href="#mc1ae4a0f24" x="155.699992" y="61.960813" style="fill: #0000ff; stroke: #0000ff"/>
     <use xlink:href="#mc1ae4a0f24" x="163.854041" y="57.869756" style="fill: #0000ff; stroke: #0000ff"/>
     <use xlink:href="#mc1ae4a0f24" x="172.00809" y="53.778699" style="fill: #0000ff; stroke: #0000ff"/>
     <use xlink:href="#mc1ae4a0f24" x="180.162138" y="49.687642" style="fill: #0000ff; stroke: #0000ff"/>
     <use xlink:href="#mc1ae4a0f24" x="188.316187" y="47.642114" style="fill: #0000ff; stroke: #0000ff"/>
     <use xlink:href="#mc1ae4a0f24" x="196.470236" y="45.596585" style="fill: #0000ff; stroke: #0000ff"/>
     <use xlink:href="#mc1ae4a0f24" x="204.624285" y="43.551057" style="fill: #0000ff; stroke: #0000ff"/>
     <use xlink:href="#mc1ae4a0f24" x="212.778334" y="43.551057" style="fill: #0000ff; stroke: #0000ff"/>
     <use xlink:href="#mc1ae4a0f24" x="220.932383" y="41.505528" style="fill: #0000ff; stroke: #0000ff"/>
     <use xlink:href="#mc1ae4a0f24" x="229.086432" y="76.279512" style="fill: #0000ff; stroke: #0000ff"/>
     <use xlink:href="#mc1ae4a0f24" x="237.24048" y="111.053496" style="fill: #0000ff; stroke: #0000ff"/>
     <use xlink:href="#mc1ae4a0f24" x="245.394529" y="141.736423" style="fill: #0000ff; stroke: #0000ff"/>
     <use xlink:href="#mc1ae4a0f24" x="253.548578" y="164.237236" style="fill: #0000ff; stroke: #0000ff"/>
     <use xlink:href="#mc1ae4a0f24" x="261.702627" y="184.69252" style="fill: #0000ff; stroke: #0000ff"/>
     <use xlink:href="#mc1ae4a0f24" x="269.856676" y="201.056748" style="fill: #0000ff; stroke: #0000ff"/>
     <use xlink:href="#mc1ae4a0f24" x="278.010725" y="215.375447" style="fill: #0000ff; stroke: #0000ff"/>
     <use xlink:href="#mc1ae4a0f24" x="286.164773" y="227.648618" style="fill: #0000ff; stroke: #0000ff"/>
     <use xlink:href="#mc1ae4a0f24" x="294.318822" y="237.87626" style="fill: #0000ff; stroke: #0000ff"/>
     <use xlink:href="#mc1ae4a0f24" x="302.472871" y="246.058374" style="fill: #0000ff; stroke: #0000ff"/>
     <use xlink:href="#mc1ae4a0f24" x="310.62692" y="254.240488" style="fill: #0000ff; stroke: #0000ff"/>
     <use xlink:href="#mc1ae4a0f24" x="318.780969" y="260.377073" style="fill: #0000ff; stroke: #0000ff"/>
     <use xlink:href="#mc1ae4a0f24" x="326.935018" y="266.513659" style="fill: #0000ff; stroke: #0000ff"/>
     <use xlink:href="#mc1ae4a0f24" x="335.089067" y="268.559187" style="fill: #0000ff; stroke: #0000ff"/>
     <use xlink:href="#mc1ae4a0f24" x="343.243115" y="272.650244" style="fill: #0000ff; stroke: #0000ff"/>
     <use xlink:href="#mc1ae4a0f24" x="351.397164" y="276.741301" style="fill: #0000ff; stroke: #0000ff"/>
     <use xlink:href="#mc1ae4a0f24" x="359.551213" y="278.786829" style="fill: #0000ff; stroke: #0000ff"/>
     <use xlink:href="#mc1ae4a0f24" x="367.705262" y="280.832358" style="fill: #0000ff; stroke: #0000ff"/>
     <use xlink:href="#mc1ae4a0f24" x="375.859311" y="282.877886" style="fill: #0000ff; stroke: #0000ff"/>
     <use xlink:href="#mc1ae4a0f24" x="384.01336" y="284.923415" style="fill: #0000ff; stroke: #0000ff"/>
     <use xlink:href="#mc1ae4a0f24" x="392.167409" y="284.923415" style="fill: #0000ff; stroke: #0000ff"/>
     <use xlink:href="#mc1ae4a0f24" x="400.321457" y="286.968943" style="fill: #0000ff; stroke: #0000ff"/>
     <use xlink:href="#mc1ae4a0f24" x="408.475506" y="289.014472" style="fill: #0000ff; stroke: #0000ff"/>
     <use xlink:href="#mc1ae4a0f24" x="416.629555" y="289.014472" style="fill: #0000ff; stroke: #0000ff"/>
     <use xlink:href="#mc1ae4a0f24" x="424.783604" y="289.014472" style="fill: #0000ff; stroke: #0000ff"/>
    </g>
   </g>
   <g id="patch_3">
    <path d="M 47.72 303.64 
L 47.72 26.88 
" style="fill: none; stroke: #000000; stroke-width: 0.8; stroke-linejoin: miter; stroke-linecap: square"/>
   </g>
   <g id="patch_4">
    <path d="M 450 303.64 
L 450 26.88 
" style="fill: none; stroke: #000000; stroke-width: 0.8; stroke-linejoin: miter; stroke-linecap: square"/>
   </g>
   <g id="patch_5">
    <path d="M 47.72 303.64 
L 450 303.64 
" style="fill: none; stroke: #000000; stroke-width: 0.8; stroke-linejoin: miter; stroke-linecap: square"/>
   </g>
   <g id="patch_6">
    <path d="M 47.72 26.88 
L 450 26.88 
" style="fill: none; stroke: #000000; stroke-width: 0.8; stroke-linejoin: miter; stroke-linecap: square"/>
   </g>
   <g id="text_16">
    <!-- Время зарядки: 4.24 c  -->
    <g transform="translate(288.140962 123.536609) scale(0.1 -0.1)">
     <defs>
      <path id="DejaVuSans-437" d="M 2206 1888 
Q 2594 1813 2809 1584 
Q 3025 1356 3025 1019 
Q 3025 478 2622 193 
Q 2219 -91 1475 -91 
Q 1225 -91 961 -47 
Q 697 -3 416 84 
L 416 619 
Q 638 503 903 445 
Q 1169 388 1459 388 
Q 1931 388 2195 563 
Q 2459 738 2459 1019 
Q 2459 1294 2225 1461 
Q 1991 1628 1563 1628 
L 1100 1628 
L 1100 2103 
L 1584 2103 
Q 1947 2103 2158 2242 
Q 2369 2381 2369 2600 
Q 2369 2800 2151 2944 
Q 1934 3088 1563 3088 
Q 1341 3088 1089 3047 
Q 838 3006 534 2916 
L 534 3438 
Q 841 3513 1106 3550 
Q 1372 3588 1609 3588 
Q 2222 3588 2576 3342 
Q 2931 3097 2931 2656 
Q 2931 2366 2743 2164 
Q 2556 1963 2206 1888 
z
" transform="scale(0.015625)"/>
      <path id="DejaVuSans-434" d="M 1384 459 
L 3053 459 
L 3053 3041 
L 1844 3041 
L 1844 2603 
Q 1844 1316 1475 628 
L 1384 459 
z
M 550 459 
Q 834 584 959 850 
Q 1266 1509 1266 2838 
L 1266 3500 
L 3631 3500 
L 3631 459 
L 4091 459 
L 4091 -884 
L 3631 -884 
L 3631 0 
L 794 0 
L 794 -884 
L 334 -884 
L 334 459 
L 550 459 
z
" transform="scale(0.015625)"/>
      <path id="DejaVuSans-43a" d="M 581 3500 
L 1153 3500 
L 1153 1856 
L 2775 3500 
L 3481 3500 
L 2144 2147 
L 3653 0 
L 3009 0 
L 1769 1766 
L 1153 1141 
L 1153 0 
L 581 0 
L 581 3500 
z
" transform="scale(0.015625)"/>
      <path id="DejaVuSans-3a" d="M 750 794 
L 1409 794 
L 1409 0 
L 750 0 
L 750 794 
z
M 750 3309 
L 1409 3309 
L 1409 2516 
L 750 2516 
L 750 3309 
z
" transform="scale(0.015625)"/>
      <path id="DejaVuSans-63" d="M 3122 3366 
L 3122 2828 
Q 2878 2963 2633 3030 
Q 2388 3097 2138 3097 
Q 1578 3097 1268 2742 
Q 959 2388 959 1747 
Q 959 1106 1268 751 
Q 1578 397 2138 397 
Q 2388 397 2633 464 
Q 2878 531 3122 666 
L 3122 134 
Q 2881 22 2623 -34 
Q 2366 -91 2075 -91 
Q 1284 -91 818 406 
Q 353 903 353 1747 
Q 353 2603 823 3093 
Q 1294 3584 2113 3584 
Q 2378 3584 2631 3529 
Q 2884 3475 3122 3366 
z
" transform="scale(0.015625)"/>
     </defs>
     <use xlink:href="#DejaVuSans-412"/>
     <use xlink:href="#DejaVuSans-440" x="68.603516"/>
     <use xlink:href="#DejaVuSans-435" x="132.080078"/>
     <use xlink:href="#DejaVuSans-43c" x="193.603516"/>
     <use xlink:href="#DejaVuSans-44f" x="269.042969"/>
     <use xlink:href="#DejaVuSans-20" x="329.199219"/>
     <use xlink:href="#DejaVuSans-437" x="360.986328"/>
     <use xlink:href="#DejaVuSans-430" x="414.160156"/>
     <use xlink:href="#DejaVuSans-440" x="475.439453"/>
     <use xlink:href="#DejaVuSans-44f" x="538.916016"/>
     <use xlink:href="#DejaVuSans-434" x="599.072266"/>
     <use xlink:href="#DejaVuSans-43a" x="668.212891"/>
     <use xlink:href="#DejaVuSans-438" x="728.613281"/>
     <use xlink:href="#DejaVuSans-3a" x="793.603516"/>
     <use xlink:href="#DejaVuSans-20" x="827.294922"/>
     <use xlink:href="#DejaVuSans-34" x="859.082031"/>
     <use xlink:href="#DejaVuSans-2e" x="922.705078"/>
     <use xlink:href="#DejaVuSans-32" x="954.492188"/>
     <use xlink:href="#DejaVuSans-34" x="1018.115234"/>
     <use xlink:href="#DejaVuSans-20" x="1081.738281"/>
     <use xlink:href="#DejaVuSans-63" x="1113.525391"/>
     <use xlink:href="#DejaVuSans-20" x="1168.505859"/>
    </g>
    <!-- Врямя разрядки: 5.66 c -->
    <g transform="translate(288.140962 134.734422) scale(0.1 -0.1)">
     <use xlink:href="#DejaVuSans-412"/>
     <use xlink:href="#DejaVuSans-440" x="68.603516"/>
     <use xlink:href="#DejaVuSans-44f" x="132.080078"/>
     <use xlink:href="#DejaVuSans-43c" x="192.236328"/>
     <use xlink:href="#DejaVuSans-44f" x="267.675781"/>
     <use xlink:href="#DejaVuSans-20" x="327.832031"/>
     <use xlink:href="#DejaVuSans-440" x="359.619141"/>
     <use xlink:href="#DejaVuSans-430" x="423.095703"/>
     <use xlink:href="#DejaVuSans-437" x="484.375"/>
     <use xlink:href="#DejaVuSans-440" x="537.548828"/>
     <use xlink:href="#DejaVuSans-44f" x="601.025391"/>
     <use xlink:href="#DejaVuSans-434" x="661.181641"/>
     <use xlink:href="#DejaVuSans-43a" x="730.322266"/>
     <use xlink:href="#DejaVuSans-438" x="790.722656"/>
     <use xlink:href="#DejaVuSans-3a" x="855.712891"/>
     <use xlink:href="#DejaVuSans-20" x="889.404297"/>
     <use xlink:href="#DejaVuSans-35" x="921.191406"/>
     <use xlink:href="#DejaVuSans-2e" x="984.814453"/>
     <use xlink:href="#DejaVuSans-36" x="1016.601562"/>
     <use xlink:href="#DejaVuSans-36" x="1080.224609"/>
     <use xlink:href="#DejaVuSans-20" x="1143.847656"/>
     <use xlink:href="#DejaVuSans-63" x="1175.634766"/>
    </g>
   </g>
   <g id="text_17">
    <!-- Процесс заряда и разряда конденсатора в RC-цепях -->
    <g transform="translate(81.895 20.88) scale(0.12 -0.12)">
     <defs>
      <path id="DejaVuSans-41f" d="M 4184 4666 
L 4184 0 
L 3553 0 
L 3553 4134 
L 1259 4134 
L 1259 0 
L 628 0 
L 628 4666 
L 4184 4666 
z
" transform="scale(0.015625)"/>
      <path id="DejaVuSans-43e" d="M 1959 3097 
Q 1497 3097 1228 2736 
Q 959 2375 959 1747 
Q 959 1119 1226 758 
Q 1494 397 1959 397 
Q 2419 397 2687 759 
Q 2956 1122 2956 1747 
Q 2956 2369 2687 2733 
Q 2419 3097 1959 3097 
z
M 1959 3584 
Q 2709 3584 3137 3096 
Q 3566 2609 3566 1747 
Q 3566 888 3137 398 
Q 2709 -91 1959 -91 
Q 1206 -91 779 398 
Q 353 888 353 1747 
Q 353 2609 779 3096 
Q 1206 3584 1959 3584 
z
" transform="scale(0.015625)"/>
      <path id="DejaVuSans-446" d="M 3603 0 
L 581 0 
L 581 3500 
L 1159 3500 
L 1159 459 
L 3025 459 
L 3025 3500 
L 3603 3500 
L 3603 459 
L 4063 459 
L 4063 -884 
L 3603 -884 
L 3603 0 
z
" transform="scale(0.015625)"/>
      <path id="DejaVuSans-442" d="M 188 3500 
L 3541 3500 
L 3541 3041 
L 2147 3041 
L 2147 0 
L 1581 0 
L 1581 3041 
L 188 3041 
L 188 3500 
z
" transform="scale(0.015625)"/>
      <path id="DejaVuSans-432" d="M 1156 1613 
L 1156 459 
L 1975 459 
Q 2369 459 2575 607 
Q 2781 756 2781 1038 
Q 2781 1319 2575 1466 
Q 2369 1613 1975 1613 
L 1156 1613 
z
M 1156 3041 
L 1156 2072 
L 1913 2072 
Q 2238 2072 2444 2201 
Q 2650 2331 2650 2563 
Q 2650 2794 2444 2917 
Q 2238 3041 1913 3041 
L 1156 3041 
z
M 581 3500 
L 1950 3500 
Q 2566 3500 2897 3275 
Q 3228 3050 3228 2634 
Q 3228 2313 3059 2123 
Q 2891 1934 2559 1888 
Q 2956 1813 3175 1575 
Q 3394 1338 3394 981 
Q 3394 513 3033 256 
Q 2672 0 2003 0 
L 581 0 
L 581 3500 
z
" transform="scale(0.015625)"/>
      <path id="DejaVuSans-52" d="M 2841 2188 
Q 3044 2119 3236 1894 
Q 3428 1669 3622 1275 
L 4263 0 
L 3584 0 
L 2988 1197 
Q 2756 1666 2539 1819 
Q 2322 1972 1947 1972 
L 1259 1972 
L 1259 0 
L 628 0 
L 628 4666 
L 2053 4666 
Q 2853 4666 3247 4331 
Q 3641 3997 3641 3322 
Q 3641 2881 3436 2590 
Q 3231 2300 2841 2188 
z
M 1259 4147 
L 1259 2491 
L 2053 2491 
Q 2509 2491 2742 2702 
Q 2975 2913 2975 3322 
Q 2975 3731 2742 3939 
Q 2509 4147 2053 4147 
L 1259 4147 
z
" transform="scale(0.015625)"/>
      <path id="DejaVuSans-43" d="M 4122 4306 
L 4122 3641 
Q 3803 3938 3442 4084 
Q 3081 4231 2675 4231 
Q 1875 4231 1450 3742 
Q 1025 3253 1025 2328 
Q 1025 1406 1450 917 
Q 1875 428 2675 428 
Q 3081 428 3442 575 
Q 3803 722 4122 1019 
L 4122 359 
Q 3791 134 3420 21 
Q 3050 -91 2638 -91 
Q 1578 -91 968 557 
Q 359 1206 359 2328 
Q 359 3453 968 4101 
Q 1578 4750 2638 4750 
Q 3056 4750 3426 4639 
Q 3797 4528 4122 4306 
z
" transform="scale(0.015625)"/>
      <path id="DejaVuSans-2d" d="M 313 2009 
L 1997 2009 
L 1997 1497 
L 313 1497 
L 313 2009 
z
" transform="scale(0.015625)"/>
      <path id="DejaVuSans-445" d="M 3513 3500 
L 2247 1797 
L 3578 0 
L 2900 0 
L 1881 1375 
L 863 0 
L 184 0 
L 1544 1831 
L 300 3500 
L 978 3500 
L 1906 2253 
L 2834 3500 
L 3513 3500 
z
" transform="scale(0.015625)"/>
     </defs>
     <use xlink:href="#DejaVuSans-41f"/>
     <use xlink:href="#DejaVuSans-440" x="75.195312"/>
     <use xlink:href="#DejaVuSans-43e" x="138.671875"/>
     <use xlink:href="#DejaVuSans-446" x="199.853516"/>
     <use xlink:href="#DejaVuSans-435" x="267.919922"/>
     <use xlink:href="#DejaVuSans-441" x="329.443359"/>
     <use xlink:href="#DejaVuSans-441" x="384.423828"/>
     <use xlink:href="#DejaVuSans-20" x="439.404297"/>
     <use xlink:href="#DejaVuSans-437" x="471.191406"/>
     <use xlink:href="#DejaVuSans-430" x="524.365234"/>
     <use xlink:href="#DejaVuSans-440" x="585.644531"/>
     <use xlink:href="#DejaVuSans-44f" x="649.121094"/>
     <use xlink:href="#DejaVuSans-434" x="709.277344"/>
     <use xlink:href="#DejaVuSans-430" x="778.417969"/>
     <use xlink:href="#DejaVuSans-20" x="839.697266"/>
     <use xlink:href="#DejaVuSans-438" x="871.484375"/>
     <use xlink:href="#DejaVuSans-20" x="936.474609"/>
     <use xlink:href="#DejaVuSans-440" x="968.261719"/>
     <use xlink:href="#DejaVuSans-430" x="1031.738281"/>
     <use xlink:href="#DejaVuSans-437" x="1093.017578"/>
     <use xlink:href="#DejaVuSans-440" x="1146.191406"/>
     <use xlink:href="#DejaVuSans-44f" x="1209.667969"/>
     <use xlink:href="#DejaVuSans-434" x="1269.824219"/>
     <use xlink:href="#DejaVuSans-430" x="1338.964844"/>
     <use xlink:href="#DejaVuSans-20" x="1400.244141"/>
     <use xlink:href="#DejaVuSans-43a" x="1432.03125"/>
     <use xlink:href="#DejaVuSans-43e" x="1492.431641"/>
     <use xlink:href="#DejaVuSans-43d" x="1553.613281"/>
     <use xlink:href="#DejaVuSans-434" x="1618.994141"/>
     <use xlink:href="#DejaVuSans-435" x="1688.134766"/>
     <use xlink:href="#DejaVuSans-43d" x="1749.658203"/>
     <use xlink:href="#DejaVuSans-441" x="1815.039062"/>
     <use xlink:href="#DejaVuSans-430" x="1870.019531"/>
     <use xlink:href="#DejaVuSans-442" x="1931.298828"/>
     <use xlink:href="#DejaVuSans-43e" x="1989.550781"/>
     <use xlink:href="#DejaVuSans-440" x="2050.732422"/>
     <use xlink:href="#DejaVuSans-430" x="2114.208984"/>
     <use xlink:href="#DejaVuSans-20" x="2175.488281"/>
     <use xlink:href="#DejaVuSans-432" x="2207.275391"/>
     <use xlink:href="#DejaVuSans-20" x="2266.210938"/>
     <use xlink:href="#DejaVuSans-52" x="2297.998047"/>
     <use xlink:href="#DejaVuSans-43" x="2362.480469"/>
     <use xlink:href="#DejaVuSans-2d" x="2432.304688"/>
     <use xlink:href="#DejaVuSans-446" x="2468.388672"/>
     <use xlink:href="#DejaVuSans-435" x="2536.455078"/>
     <use xlink:href="#DejaVuSans-43f" x="2597.978516"/>
     <use xlink:href="#DejaVuSans-44f" x="2663.359375"/>
     <use xlink:href="#DejaVuSans-445" x="2723.515625"/>
    </g>
   </g>
   <g id="legend_1">
    <g id="patch_7">
     <path d="M 391.957812 49.558125 
L 443 49.558125 
Q 445 49.558125 445 47.558125 
L 445 33.88 
Q 445 31.88 443 31.88 
L 391.957812 31.88 
Q 389.957812 31.88 389.957812 33.88 
L 389.957812 47.558125 
Q 389.957812 49.558125 391.957812 49.558125 
z
" style="fill: #ffffff; opacity: 0.8; stroke: #cccccc; stroke-linejoin: miter"/>
    </g>
    <g id="line2d_114">
     <path d="M 393.957812 39.978437 
L 403.957812 39.978437 
L 413.957812 39.978437 
" style="fill: none; stroke: #0000ff; stroke-width: 2; stroke-linecap: square"/>
     <g>
      <use xlink:href="#mc1ae4a0f24" x="403.957812" y="39.978437" style="fill: #0000ff; stroke: #0000ff"/>
     </g>
    </g>
    <g id="text_18">
     <!-- U(t) -->
     <g transform="translate(421.957812 43.478437) scale(0.1 -0.1)">
      <defs>
       <path id="DejaVuSans-55" d="M 556 4666 
L 1191 4666 
L 1191 1831 
Q 1191 1081 1462 751 
Q 1734 422 2344 422 
Q 2950 422 3222 751 
Q 3494 1081 3494 1831 
L 3494 4666 
L 4128 4666 
L 4128 1753 
Q 4128 841 3676 375 
Q 3225 -91 2344 -91 
Q 1459 -91 1007 375 
Q 556 841 556 1753 
L 556 4666 
z
" transform="scale(0.015625)"/>
       <path id="DejaVuSans-28" d="M 1984 4856 
Q 1566 4138 1362 3434 
Q 1159 2731 1159 2009 
Q 1159 1288 1364 580 
Q 1569 -128 1984 -844 
L 1484 -844 
Q 1016 -109 783 600 
Q 550 1309 550 2009 
Q 550 2706 781 3412 
Q 1013 4119 1484 4856 
L 1984 4856 
z
" transform="scale(0.015625)"/>
       <path id="DejaVuSans-74" d="M 1172 4494 
L 1172 3500 
L 2356 3500 
L 2356 3053 
L 1172 3053 
L 1172 1153 
Q 1172 725 1289 603 
Q 1406 481 1766 481 
L 2356 481 
L 2356 0 
L 1766 0 
Q 1100 0 847 248 
Q 594 497 594 1153 
L 594 3053 
L 172 3053 
L 172 3500 
L 594 3500 
L 594 4494 
L 1172 4494 
z
" transform="scale(0.015625)"/>
       <path id="DejaVuSans-29" d="M 513 4856 
L 1013 4856 
Q 1481 4119 1714 3412 
Q 1947 2706 1947 2009 
Q 1947 1309 1714 600 
Q 1481 -109 1013 -844 
L 513 -844 
Q 928 -128 1133 580 
Q 1338 1288 1338 2009 
Q 1338 2731 1133 3434 
Q 928 4138 513 4856 
z
" transform="scale(0.015625)"/>
      </defs>
      <use xlink:href="#DejaVuSans-55"/>
      <use xlink:href="#DejaVuSans-28" x="73.193359"/>
      <use xlink:href="#DejaVuSans-74" x="112.207031"/>
      <use xlink:href="#DejaVuSans-29" x="151.416016"/>
     </g>
    </g>
   </g>
  </g>
 </g>
 <defs>
  <clipPath id="p68ef1bbd80">
   <rect x="47.72" y="26.88" width="402.28" height="276.76"/>
  </clipPath>
 </defs>
</svg>
